<svg width="123" height="29" viewBox="0 0 123 29" fill="none" xmlns="http://www.w3.org/2000/svg">
<path d="M14.6816 1.40625H19.5156V18.4043C19.5156 20.3613 19.0938 22.0078 18.25 23.3438C17.4062 24.668 16.2578 25.6699 14.8047 26.3496C13.3516 27.0176 11.6992 27.3516 9.84766 27.3516C7.97266 27.3516 6.30273 27.0176 4.83789 26.3496C3.37305 25.6699 2.22461 24.668 1.39258 23.3438C0.560547 22.0078 0.144531 20.3613 0.144531 18.4043V1.40625H4.97852V18.4043C4.97852 19.5996 5.17773 20.5781 5.57617 21.3398C5.97461 22.0898 6.53711 22.6465 7.26367 23.0098C7.99023 23.373 8.85156 23.5547 9.84766 23.5547C10.8555 23.5547 11.7168 23.373 12.4316 23.0098C13.1582 22.6465 13.7148 22.0898 14.1016 21.3398C14.4883 20.5781 14.6816 19.5996 14.6816 18.4043V1.40625Z" fill="black"/>
<path d="M22.1973 20.7324C22.1973 20.0293 22.4375 19.4375 22.918 18.957C23.3984 18.4766 24.0488 18.2363 24.8691 18.2363C25.6895 18.2363 26.3398 18.4766 26.8203 18.957C27.3008 19.4375 27.541 20.0293 27.541 20.7324C27.541 21.4238 27.3008 22.0098 26.8203 22.4902C26.3398 22.959 25.6895 23.1934 24.8691 23.1934C24.0488 23.1934 23.3984 22.959 22.918 22.4902C22.4375 22.0098 22.1973 21.4238 22.1973 20.7324ZM22.2148 5.98438C22.2148 5.28125 22.4551 4.68945 22.9355 4.20898C23.416 3.72852 24.0664 3.48828 24.8867 3.48828C25.707 3.48828 26.3574 3.72852 26.8379 4.20898C27.3184 4.68945 27.5586 5.28125 27.5586 5.98438C27.5586 6.67578 27.3184 7.26172 26.8379 7.74219C26.3574 8.21094 25.707 8.44531 24.8867 8.44531C24.0664 8.44531 23.416 8.21094 22.9355 7.74219C22.4551 7.26172 22.2148 6.67578 22.2148 5.98438Z" fill="black"/>
<path d="M36.0078 13.0625V13.2852C36.0078 14.9102 35.8242 16.3984 35.457 17.75C35.0977 19.1016 34.6211 20.293 34.0273 21.3242C33.4414 22.3555 32.8008 23.2148 32.1055 23.9023C31.418 24.5898 30.7422 25.0859 30.0781 25.3906L29.4688 23.7383C29.9141 23.4023 30.3555 22.9414 30.793 22.3555C31.2305 21.7695 31.6289 21.0469 31.9883 20.1875C32.3555 19.3281 32.6445 18.3281 32.8555 17.1875C33.0742 16.0469 33.1836 14.7539 33.1836 13.3086V13.0391C33.1836 11.5938 33.0703 10.3008 32.8438 9.16016C32.625 8.01953 32.332 7.02344 31.9648 6.17188C31.5977 5.3125 31.1953 4.58984 30.7578 4.00391C30.3203 3.41016 29.8906 2.94922 29.4688 2.62109L30.0781 0.96875C30.7422 1.26562 31.418 1.76172 32.1055 2.45703C32.8008 3.14453 33.4414 4.00781 34.0273 5.04688C34.6211 6.07812 35.0977 7.26953 35.457 8.62109C35.8242 9.96484 36.0078 11.4453 36.0078 13.0625Z" fill="black"/>
<path d="M56.2188 1.625V13H54.0703V3.32031H49.2578V13H47.1094V1.625H56.2188Z" fill="black"/>
<path d="M62.0703 13.1562C61.4297 13.1562 60.8542 13.0521 60.3438 12.8438C59.8333 12.6354 59.3984 12.3464 59.0391 11.9766C58.6849 11.6016 58.4115 11.1667 58.2188 10.6719C58.0312 10.1719 57.9375 9.63542 57.9375 9.0625V8.75C57.9375 8.09896 58.0312 7.50781 58.2188 6.97656C58.4062 6.4401 58.6719 5.97917 59.0156 5.59375C59.3594 5.20833 59.7708 4.91146 60.25 4.70312C60.7292 4.49479 61.2578 4.39062 61.8359 4.39062C62.4349 4.39062 62.9635 4.49219 63.4219 4.69531C63.8802 4.89323 64.263 5.17448 64.5703 5.53906C64.8776 5.90365 65.1094 6.34115 65.2656 6.85156C65.4219 7.35677 65.5 7.91667 65.5 8.53125V9.39844H58.875V7.97656H63.4688V7.82031C63.4583 7.49219 63.3958 7.19271 63.2812 6.92188C63.1667 6.64583 62.9896 6.42708 62.75 6.26562C62.5104 6.09896 62.2005 6.01562 61.8203 6.01562C61.513 6.01562 61.2448 6.08333 61.0156 6.21875C60.7917 6.34896 60.6042 6.53646 60.4531 6.78125C60.3073 7.02083 60.1979 7.30729 60.125 7.64062C60.0521 7.97396 60.0156 8.34375 60.0156 8.75V9.0625C60.0156 9.41667 60.0625 9.74479 60.1562 10.0469C60.2552 10.349 60.3984 10.612 60.5859 10.8359C60.7786 11.0547 61.0078 11.2266 61.2734 11.3516C61.5443 11.4714 61.8516 11.5312 62.1953 11.5312C62.6276 11.5312 63.0182 11.4479 63.3672 11.2812C63.7214 11.1094 64.0286 10.8568 64.2891 10.5234L65.3281 11.6016C65.151 11.862 64.9115 12.112 64.6094 12.3516C64.3125 12.5911 63.9531 12.7865 63.5312 12.9375C63.1094 13.0833 62.6224 13.1562 62.0703 13.1562Z" fill="black"/>
<path d="M73.8359 4.54688V13H71.7656V4.54688H73.8359ZM72.8984 8.22656V9.85156C72.7005 9.94531 72.4609 10.0339 72.1797 10.1172C71.9036 10.1953 71.612 10.2578 71.3047 10.3047C71.0026 10.3516 70.7083 10.375 70.4219 10.375C69.6458 10.375 68.9766 10.2604 68.4141 10.0312C67.8568 9.80208 67.4271 9.45052 67.125 8.97656C66.8229 8.4974 66.6719 7.88542 66.6719 7.14062V4.53906H68.7344V7.14062C68.7344 7.54167 68.7943 7.85938 68.9141 8.09375C69.0339 8.32812 69.2188 8.49479 69.4688 8.59375C69.7188 8.69271 70.0365 8.74219 70.4219 8.74219C70.7188 8.74219 71.0026 8.72135 71.2734 8.67969C71.5443 8.63281 71.8125 8.57292 72.0781 8.5C72.349 8.42188 72.6224 8.33073 72.8984 8.22656Z" fill="black"/>
<path d="M80.3672 11.2031V7.30469C80.3672 7.01823 80.3177 6.77083 80.2188 6.5625C80.1198 6.35417 79.9688 6.19271 79.7656 6.07812C79.5625 5.96354 79.3047 5.90625 78.9922 5.90625C78.7161 5.90625 78.474 5.95312 78.2656 6.04688C78.0625 6.14062 77.9062 6.27344 77.7969 6.44531C77.6875 6.61198 77.6328 6.80469 77.6328 7.02344H75.5625C75.5625 6.67448 75.6458 6.34375 75.8125 6.03125C75.9792 5.71354 76.2161 5.43229 76.5234 5.1875C76.8359 4.9375 77.2083 4.74219 77.6406 4.60156C78.0781 4.46094 78.5677 4.39062 79.1094 4.39062C79.75 4.39062 80.3203 4.5 80.8203 4.71875C81.3255 4.93229 81.7214 5.25521 82.0078 5.6875C82.2995 6.11979 82.4453 6.66406 82.4453 7.32031V11.0078C82.4453 11.4297 82.4714 11.7917 82.5234 12.0938C82.5807 12.3906 82.6641 12.6484 82.7734 12.8672V13H80.6719C80.5729 12.7865 80.4974 12.5156 80.4453 12.1875C80.3932 11.8542 80.3672 11.526 80.3672 11.2031ZM80.6562 7.85156L80.6719 9.07812H79.3672C79.0443 9.07812 78.7604 9.11198 78.5156 9.17969C78.2708 9.24219 78.0703 9.33594 77.9141 9.46094C77.7578 9.58073 77.6406 9.72656 77.5625 9.89844C77.4844 10.0651 77.4453 10.2552 77.4453 10.4688C77.4453 10.6771 77.4922 10.8646 77.5859 11.0312C77.6849 11.1979 77.8255 11.3307 78.0078 11.4297C78.1953 11.5234 78.4141 11.5703 78.6641 11.5703C79.0286 11.5703 79.3464 11.4974 79.6172 11.3516C79.888 11.2005 80.099 11.0182 80.25 10.8047C80.401 10.5911 80.4818 10.388 80.4922 10.1953L81.0859 11.0859C81.013 11.2995 80.9036 11.526 80.7578 11.7656C80.612 12.0052 80.4245 12.2292 80.1953 12.4375C79.9661 12.6458 79.6901 12.8177 79.3672 12.9531C79.0443 13.0885 78.6693 13.1562 78.2422 13.1562C77.6953 13.1562 77.2057 13.0469 76.7734 12.8281C76.3411 12.6094 76 12.3099 75.75 11.9297C75.5 11.5495 75.375 11.1172 75.375 10.6328C75.375 10.1849 75.4583 9.78906 75.625 9.44531C75.7917 9.10156 76.0391 8.8125 76.3672 8.57812C76.6953 8.33854 77.1016 8.15885 77.5859 8.03906C78.0755 7.91406 78.6354 7.85156 79.2656 7.85156H80.6562Z" fill="black"/>
<path d="M88.2812 4.54688V13H86.2109V4.54688H88.2812ZM91.0312 4.54688V6.15625H83.5078V4.54688H91.0312Z" fill="black"/>
<path d="M93.7109 7.14844H96.1797C96.9297 7.14844 97.5677 7.27344 98.0938 7.52344C98.625 7.76823 99.0286 8.11198 99.3047 8.55469C99.5859 8.99219 99.7266 9.5 99.7266 10.0781C99.7266 10.4948 99.6458 10.8828 99.4844 11.2422C99.3281 11.5964 99.099 11.9062 98.7969 12.1719C98.4948 12.4323 98.1224 12.6354 97.6797 12.7812C97.2422 12.9271 96.7422 13 96.1797 13H92.3828V4.54688H94.4531V11.3828H96.1797C96.5391 11.3828 96.8255 11.3229 97.0391 11.2031C97.2578 11.0781 97.4141 10.9193 97.5078 10.7266C97.6068 10.5286 97.6562 10.3177 97.6562 10.0938C97.6562 9.86458 97.6068 9.65104 97.5078 9.45312C97.4141 9.25 97.2578 9.08594 97.0391 8.96094C96.8255 8.83594 96.5391 8.77344 96.1797 8.77344H93.7109V7.14844Z" fill="black"/>
<path d="M110.875 8.01562V9.63281H106.539V8.01562H110.875ZM107.188 4.54688V13H105.117V4.54688H107.188ZM112.32 4.54688V13H110.242V4.54688H112.32Z" fill="black"/>
<path d="M118.852 11.2031V7.30469C118.852 7.01823 118.802 6.77083 118.703 6.5625C118.604 6.35417 118.453 6.19271 118.25 6.07812C118.047 5.96354 117.789 5.90625 117.477 5.90625C117.201 5.90625 116.958 5.95312 116.75 6.04688C116.547 6.14062 116.391 6.27344 116.281 6.44531C116.172 6.61198 116.117 6.80469 116.117 7.02344H114.047C114.047 6.67448 114.13 6.34375 114.297 6.03125C114.464 5.71354 114.701 5.43229 115.008 5.1875C115.32 4.9375 115.693 4.74219 116.125 4.60156C116.562 4.46094 117.052 4.39062 117.594 4.39062C118.234 4.39062 118.805 4.5 119.305 4.71875C119.81 4.93229 120.206 5.25521 120.492 5.6875C120.784 6.11979 120.93 6.66406 120.93 7.32031V11.0078C120.93 11.4297 120.956 11.7917 121.008 12.0938C121.065 12.3906 121.148 12.6484 121.258 12.8672V13H119.156C119.057 12.7865 118.982 12.5156 118.93 12.1875C118.878 11.8542 118.852 11.526 118.852 11.2031ZM119.141 7.85156L119.156 9.07812H117.852C117.529 9.07812 117.245 9.11198 117 9.17969C116.755 9.24219 116.555 9.33594 116.398 9.46094C116.242 9.58073 116.125 9.72656 116.047 9.89844C115.969 10.0651 115.93 10.2552 115.93 10.4688C115.93 10.6771 115.977 10.8646 116.07 11.0312C116.169 11.1979 116.31 11.3307 116.492 11.4297C116.68 11.5234 116.898 11.5703 117.148 11.5703C117.513 11.5703 117.831 11.4974 118.102 11.3516C118.372 11.2005 118.583 11.0182 118.734 10.8047C118.885 10.5911 118.966 10.388 118.977 10.1953L119.57 11.0859C119.497 11.2995 119.388 11.526 119.242 11.7656C119.096 12.0052 118.909 12.2292 118.68 12.4375C118.451 12.6458 118.174 12.8177 117.852 12.9531C117.529 13.0885 117.154 13.1562 116.727 13.1562C116.18 13.1562 115.69 13.0469 115.258 12.8281C114.826 12.6094 114.484 12.3099 114.234 11.9297C113.984 11.5495 113.859 11.1172 113.859 10.6328C113.859 10.1849 113.943 9.78906 114.109 9.44531C114.276 9.10156 114.523 8.8125 114.852 8.57812C115.18 8.33854 115.586 8.15885 116.07 8.03906C116.56 7.91406 117.12 7.85156 117.75 7.85156H119.141Z" fill="black"/>
<path d="M49.1328 16.5469V25H47.0703V16.5469H49.1328ZM54.6406 16.5469L50.9141 21.7344H48.7188L48.4609 19.8438H49.9844L52.0391 16.5469H54.6406ZM52.1641 25L49.8516 21.375L51.5703 20.2969L54.9062 25H52.1641Z" fill="black"/>
<path d="M59.8341 18.1719V28.25H57.7637V16.5469H59.6778L59.8341 18.1719ZM65.2637 20.6875V20.8516C65.2637 21.4661 65.1908 22.0365 65.045 22.5625C64.9044 23.0833 64.696 23.5391 64.42 23.9297C64.144 24.3151 63.8002 24.6172 63.3887 24.8359C62.9825 25.0495 62.5137 25.1562 61.9825 25.1562C61.4617 25.1562 61.0085 25.0573 60.6231 24.8594C60.2377 24.6562 59.9122 24.3698 59.6466 24C59.3809 23.6302 59.1674 23.2005 59.0059 22.7109C58.8497 22.2161 58.7325 21.6771 58.6544 21.0938V20.5703C58.7325 19.9505 58.8497 19.388 59.0059 18.8828C59.1674 18.3724 59.3809 17.9323 59.6466 17.5625C59.9122 17.1875 60.2351 16.8984 60.6153 16.6953C61.0007 16.4922 61.4512 16.3906 61.9669 16.3906C62.5033 16.3906 62.9747 16.4922 63.3809 16.6953C63.7924 16.8984 64.1387 17.1901 64.42 17.5703C64.7012 17.9505 64.9122 18.4036 65.0528 18.9297C65.1934 19.4557 65.2637 20.0417 65.2637 20.6875ZM63.1934 20.8516V20.6875C63.1934 20.3125 63.1596 19.9661 63.0919 19.6484C63.0242 19.3255 62.92 19.0443 62.7794 18.8047C62.6387 18.5599 62.4565 18.3698 62.2325 18.2344C62.0085 18.099 61.7377 18.0312 61.42 18.0312C61.1023 18.0312 60.8289 18.0833 60.5997 18.1875C60.3705 18.2917 60.183 18.4401 60.0372 18.6328C59.8914 18.8255 59.7768 19.0547 59.6934 19.3203C59.6153 19.5807 59.5632 19.8698 59.5372 20.1875V21.4844C59.5841 21.8698 59.6752 22.2161 59.8106 22.5234C59.946 22.8307 60.144 23.0755 60.4044 23.2578C60.67 23.4401 61.0137 23.5312 61.4356 23.5312C61.7533 23.5312 62.0242 23.4609 62.2481 23.3203C62.4721 23.1797 62.6544 22.987 62.795 22.7422C62.9356 22.4922 63.0372 22.2057 63.0997 21.8828C63.1622 21.5599 63.1934 21.2161 63.1934 20.8516Z" fill="black"/>
<path d="M71.0744 24.0625L73.34 16.5469H75.5509L72.1603 26.2812C72.0822 26.4896 71.9806 26.7161 71.8556 26.9609C71.7358 27.2057 71.5744 27.4375 71.3712 27.6562C71.1681 27.8802 70.9129 28.0625 70.6056 28.2031C70.3035 28.3438 69.9364 28.4141 69.5041 28.4141C69.3166 28.4141 69.1499 28.401 69.0041 28.375C68.8582 28.349 68.7046 28.3151 68.5431 28.2734V26.7266C68.5952 26.7318 68.6551 26.7344 68.7228 26.7344C68.7957 26.7396 68.8582 26.7422 68.9103 26.7422C69.2124 26.7422 69.4624 26.7057 69.6603 26.6328C69.8582 26.5651 70.0171 26.4531 70.1369 26.2969C70.2619 26.1458 70.366 25.9479 70.4494 25.7031L71.0744 24.0625ZM69.9572 16.5469L71.8712 22.7734L72.2072 24.9531L70.7853 25.2109L67.7306 16.5469H69.9572Z" fill="black"/>
<path d="M81.3538 21.7031L77.9163 16.5469H80.4631L82.3459 19.8047H83.9788L83.7209 21.7031H81.3538ZM82.385 21.375L80.3381 25H77.8303L80.76 20.2969L82.385 21.375ZM85.2756 16.5469V25H83.2131V16.5469H85.2756ZM90.5959 16.5469L87.1506 21.7031H84.7834L84.5256 19.8047H86.1584L88.0413 16.5469H90.5959ZM88.1663 25L86.1194 21.375L87.7991 20.2969L90.7209 25H88.1663Z" fill="black"/>
<path d="M95.9847 16.5469V25H93.9222V16.5469H95.9847ZM101.493 16.5469L97.7659 21.7344H95.5706L95.3128 19.8438H96.8363L98.8909 16.5469H101.493ZM99.0159 25L96.7034 21.375L98.4222 20.2969L101.758 25H99.0159Z" fill="black"/>
<path d="M109.28 23.2031V19.3047C109.28 19.0182 109.23 18.7708 109.131 18.5625C109.032 18.3542 108.881 18.1927 108.678 18.0781C108.475 17.9635 108.217 17.9062 107.905 17.9062C107.629 17.9062 107.386 17.9531 107.178 18.0469C106.975 18.1406 106.819 18.2734 106.709 18.4453C106.6 18.612 106.545 18.8047 106.545 19.0234H104.475C104.475 18.6745 104.558 18.3438 104.725 18.0312C104.892 17.7135 105.129 17.4323 105.436 17.1875C105.748 16.9375 106.121 16.7422 106.553 16.6016C106.991 16.4609 107.48 16.3906 108.022 16.3906C108.662 16.3906 109.233 16.5 109.733 16.7188C110.238 16.9323 110.634 17.2552 110.92 17.6875C111.212 18.1198 111.358 18.6641 111.358 19.3203V23.0078C111.358 23.4297 111.384 23.7917 111.436 24.0938C111.493 24.3906 111.577 24.6484 111.686 24.8672V25H109.584C109.485 24.7865 109.41 24.5156 109.358 24.1875C109.306 23.8542 109.28 23.526 109.28 23.2031ZM109.569 19.8516L109.584 21.0781H108.28C107.957 21.0781 107.673 21.112 107.428 21.1797C107.183 21.2422 106.983 21.3359 106.827 21.4609C106.67 21.5807 106.553 21.7266 106.475 21.8984C106.397 22.0651 106.358 22.2552 106.358 22.4688C106.358 22.6771 106.405 22.8646 106.498 23.0312C106.597 23.1979 106.738 23.3307 106.92 23.4297C107.108 23.5234 107.327 23.5703 107.577 23.5703C107.941 23.5703 108.259 23.4974 108.53 23.3516C108.801 23.2005 109.011 23.0182 109.162 22.8047C109.314 22.5911 109.394 22.388 109.405 22.1953L109.998 23.0859C109.926 23.2995 109.816 23.526 109.67 23.7656C109.524 24.0052 109.337 24.2292 109.108 24.4375C108.879 24.6458 108.603 24.8177 108.28 24.9531C107.957 25.0885 107.582 25.1562 107.155 25.1562C106.608 25.1562 106.118 25.0469 105.686 24.8281C105.254 24.6094 104.912 24.3099 104.662 23.9297C104.412 23.5495 104.287 23.1172 104.287 22.6328C104.287 22.1849 104.371 21.7891 104.537 21.4453C104.704 21.1016 104.952 20.8125 105.28 20.5781C105.608 20.3385 106.014 20.1589 106.498 20.0391C106.988 19.9141 107.548 19.8516 108.178 19.8516H109.569Z" fill="black"/>
<path d="M116.754 16.5469L118.262 19.2344L119.793 16.5469H122.036L119.551 20.6875L122.137 25H119.895L118.278 22.1797L116.653 25H114.411L116.989 20.6875L114.52 16.5469H116.754Z" fill="black"/>
</svg>
