<svg width="125" height="90" viewBox="0 0 125 90" fill="none" xmlns="http://www.w3.org/2000/svg">
<rect x="0.5" y="0.5" width="124" height="89" rx="5.5" fill="#FF0000" stroke="#FF0000"/>
<rect x="0.5" y="35.5" width="91" height="44" rx="5.5" fill="white" stroke="#FF0000"/>
<path d="M117 44C120.314 44 123 46.6863 123 50V66C123 69.3137 120.314 72 117 72H89C85.7655 72 83.131 69.4405 83.0068 66.2363C83.5371 66.7093 84.2335 67 85 67H115C116.657 67 118 65.6569 118 64V52C118 50.3431 116.657 49 115 49H85C84.2338 49 83.5371 49.29 83.0068 49.7627C83.1315 46.559 85.7658 44 89 44H117Z" fill="white"/>
<path d="M19.5801 43.3359V54H17.5659V44.9253H13.0542V54H11.04V43.3359H19.5801Z" fill="black"/>
<path d="M25.0659 54.1465C24.4653 54.1465 23.9258 54.0488 23.4473 53.8535C22.9688 53.6582 22.561 53.3872 22.2241 53.0405C21.8921 52.689 21.6357 52.2812 21.4551 51.8174C21.2793 51.3486 21.1914 50.8457 21.1914 50.3086V50.0156C21.1914 49.4053 21.2793 48.8511 21.4551 48.353C21.6309 47.8501 21.8799 47.418 22.2021 47.0566C22.5244 46.6953 22.9102 46.417 23.3594 46.2217C23.8086 46.0264 24.3042 45.9287 24.8462 45.9287C25.4077 45.9287 25.9033 46.0239 26.333 46.2144C26.7627 46.3999 27.1216 46.6636 27.4097 47.0054C27.6978 47.3472 27.915 47.7573 28.0615 48.2358C28.208 48.7095 28.2812 49.2344 28.2812 49.8105V50.6235H22.0703V49.2905H26.377V49.144C26.3672 48.8364 26.3086 48.5557 26.2012 48.3018C26.0938 48.043 25.9277 47.8379 25.7031 47.6865C25.4785 47.5303 25.188 47.4521 24.8315 47.4521C24.5435 47.4521 24.292 47.5156 24.0771 47.6426C23.8672 47.7646 23.6914 47.9404 23.5498 48.1699C23.4131 48.3945 23.3105 48.6631 23.2422 48.9756C23.1738 49.2881 23.1396 49.6348 23.1396 50.0156V50.3086C23.1396 50.6406 23.1836 50.9482 23.2715 51.2314C23.3643 51.5146 23.4985 51.7612 23.6743 51.9712C23.855 52.1763 24.0698 52.3374 24.3188 52.4546C24.5728 52.5669 24.8608 52.623 25.1831 52.623C25.5884 52.623 25.9546 52.5449 26.2817 52.3887C26.6138 52.2275 26.9019 51.9907 27.146 51.6782L28.1201 52.689C27.9541 52.9331 27.7295 53.1675 27.4463 53.3921C27.168 53.6167 26.8311 53.7998 26.4355 53.9414C26.04 54.0781 25.5835 54.1465 25.0659 54.1465Z" fill="black"/>
<path d="M36.0962 46.0752V54H34.1553V46.0752H36.0962ZM35.2173 49.5249V51.0483C35.0317 51.1362 34.8071 51.2192 34.5435 51.2974C34.2847 51.3706 34.0112 51.4292 33.7231 51.4731C33.4399 51.5171 33.1641 51.5391 32.8955 51.5391C32.168 51.5391 31.5405 51.4316 31.0132 51.2168C30.4907 51.002 30.0879 50.6724 29.8047 50.228C29.5215 49.7788 29.3799 49.2051 29.3799 48.5068V46.0679H31.3135V48.5068C31.3135 48.8828 31.3696 49.1807 31.4819 49.4004C31.5942 49.6201 31.7676 49.7764 32.002 49.8691C32.2363 49.9619 32.5342 50.0083 32.8955 50.0083C33.1738 50.0083 33.4399 49.9888 33.6938 49.9497C33.9478 49.9058 34.1992 49.8496 34.4482 49.7812C34.7021 49.708 34.9585 49.6226 35.2173 49.5249Z" fill="black"/>
<path d="M42.2192 52.3154V48.6606C42.2192 48.3921 42.1729 48.1602 42.0801 47.9648C41.9873 47.7695 41.8457 47.6182 41.6553 47.5107C41.4648 47.4033 41.2231 47.3496 40.9302 47.3496C40.6714 47.3496 40.4443 47.3936 40.249 47.4814C40.0586 47.5693 39.9121 47.6938 39.8096 47.855C39.707 48.0112 39.6558 48.1919 39.6558 48.397H37.7148C37.7148 48.0698 37.793 47.7598 37.9492 47.4668C38.1055 47.1689 38.3276 46.9053 38.6157 46.6758C38.9087 46.4414 39.2578 46.2583 39.6631 46.1265C40.0732 45.9946 40.5322 45.9287 41.04 45.9287C41.6406 45.9287 42.1753 46.0312 42.644 46.2363C43.1177 46.4365 43.4888 46.7393 43.7573 47.1445C44.0308 47.5498 44.1675 48.0601 44.1675 48.6753V52.1323C44.1675 52.5278 44.1919 52.8672 44.2407 53.1504C44.2944 53.4287 44.3726 53.6704 44.4751 53.8755V54H42.5049C42.4121 53.7998 42.3413 53.5459 42.2925 53.2383C42.2437 52.9258 42.2192 52.6182 42.2192 52.3154ZM42.4902 49.1733L42.5049 50.3232H41.2817C40.979 50.3232 40.7129 50.355 40.4834 50.4185C40.2539 50.4771 40.0659 50.5649 39.9194 50.6821C39.7729 50.7944 39.6631 50.9312 39.5898 51.0923C39.5166 51.2485 39.48 51.4268 39.48 51.627C39.48 51.8223 39.5239 51.998 39.6118 52.1543C39.7046 52.3105 39.8364 52.4351 40.0073 52.5278C40.1831 52.6157 40.3882 52.6597 40.6226 52.6597C40.9644 52.6597 41.2622 52.5913 41.5161 52.4546C41.77 52.313 41.9678 52.1421 42.1094 51.9419C42.251 51.7417 42.3267 51.5513 42.3364 51.3706L42.8931 52.2056C42.8247 52.4058 42.7222 52.6182 42.5854 52.8428C42.4487 53.0674 42.2729 53.2773 42.0581 53.4727C41.8433 53.668 41.5845 53.8291 41.2817 53.9561C40.979 54.083 40.6274 54.1465 40.2271 54.1465C39.7144 54.1465 39.2554 54.0439 38.8501 53.8389C38.4448 53.6338 38.125 53.353 37.8906 52.9966C37.6562 52.6401 37.5391 52.2349 37.5391 51.7808C37.5391 51.3608 37.6172 50.9897 37.7734 50.6675C37.9297 50.3452 38.1616 50.0742 38.4692 49.8545C38.7769 49.6299 39.1577 49.4614 39.6118 49.3491C40.0708 49.2319 40.5957 49.1733 41.1865 49.1733H42.4902Z" fill="black"/>
<path d="M49.6387 46.0752V54H47.6978V46.0752H49.6387ZM52.2168 46.0752V47.584H45.1636V46.0752H52.2168Z" fill="black"/>
<path d="M54.729 48.5142H57.0435C57.7466 48.5142 58.3447 48.6313 58.8379 48.8657C59.3359 49.0952 59.7144 49.4175 59.9731 49.8325C60.2368 50.2427 60.3687 50.7188 60.3687 51.2607C60.3687 51.6514 60.293 52.0151 60.1416 52.3521C59.9951 52.6841 59.7803 52.9746 59.4971 53.2236C59.2139 53.4678 58.8647 53.6582 58.4497 53.7949C58.0396 53.9316 57.5708 54 57.0435 54H53.4839V46.0752H55.4248V52.4839H57.0435C57.3804 52.4839 57.6489 52.4277 57.8491 52.3154C58.0542 52.1982 58.2007 52.0493 58.2886 51.8687C58.3813 51.6831 58.4277 51.4854 58.4277 51.2754C58.4277 51.0605 58.3813 50.8604 58.2886 50.6748C58.2007 50.4844 58.0542 50.3306 57.8491 50.2134C57.6489 50.0962 57.3804 50.0376 57.0435 50.0376H54.729V48.5142Z" fill="black"/>
<path d="M70.8203 49.3271V50.8433H66.7554V49.3271H70.8203ZM67.3633 46.0752V54H65.4224V46.0752H67.3633ZM72.1753 46.0752V54H70.2271V46.0752H72.1753Z" fill="black"/>
<path d="M78.2983 52.3154V48.6606C78.2983 48.3921 78.252 48.1602 78.1592 47.9648C78.0664 47.7695 77.9248 47.6182 77.7344 47.5107C77.5439 47.4033 77.3022 47.3496 77.0093 47.3496C76.7505 47.3496 76.5234 47.3936 76.3281 47.4814C76.1377 47.5693 75.9912 47.6938 75.8887 47.855C75.7861 48.0112 75.7349 48.1919 75.7349 48.397H73.7939C73.7939 48.0698 73.8721 47.7598 74.0283 47.4668C74.1846 47.1689 74.4067 46.9053 74.6948 46.6758C74.9878 46.4414 75.3369 46.2583 75.7422 46.1265C76.1523 45.9946 76.6113 45.9287 77.1191 45.9287C77.7197 45.9287 78.2544 46.0312 78.7231 46.2363C79.1968 46.4365 79.5679 46.7393 79.8364 47.1445C80.1099 47.5498 80.2466 48.0601 80.2466 48.6753V52.1323C80.2466 52.5278 80.271 52.8672 80.3198 53.1504C80.3735 53.4287 80.4517 53.6704 80.5542 53.8755V54H78.584C78.4912 53.7998 78.4204 53.5459 78.3716 53.2383C78.3228 52.9258 78.2983 52.6182 78.2983 52.3154ZM78.5693 49.1733L78.584 50.3232H77.3608C77.0581 50.3232 76.792 50.355 76.5625 50.4185C76.333 50.4771 76.145 50.5649 75.9985 50.6821C75.8521 50.7944 75.7422 50.9312 75.6689 51.0923C75.5957 51.2485 75.5591 51.4268 75.5591 51.627C75.5591 51.8223 75.603 51.998 75.6909 52.1543C75.7837 52.3105 75.9155 52.4351 76.0864 52.5278C76.2622 52.6157 76.4673 52.6597 76.7017 52.6597C77.0435 52.6597 77.3413 52.5913 77.5952 52.4546C77.8491 52.313 78.0469 52.1421 78.1885 51.9419C78.3301 51.7417 78.4058 51.5513 78.4155 51.3706L78.9722 52.2056C78.9038 52.4058 78.8013 52.6182 78.6646 52.8428C78.5278 53.0674 78.3521 53.2773 78.1372 53.4727C77.9224 53.668 77.6636 53.8291 77.3608 53.9561C77.0581 54.083 76.7065 54.1465 76.3062 54.1465C75.7935 54.1465 75.3345 54.0439 74.9292 53.8389C74.5239 53.6338 74.2041 53.353 73.9697 52.9966C73.7354 52.6401 73.6182 52.2349 73.6182 51.7808C73.6182 51.3608 73.6963 50.9897 73.8525 50.6675C74.0088 50.3452 74.2407 50.0742 74.5483 49.8545C74.856 49.6299 75.2368 49.4614 75.6909 49.3491C76.1499 49.2319 76.6748 49.1733 77.2656 49.1733H78.5693Z" fill="black"/>
<path d="M12.937 61.0752V69H11.0034V61.0752H12.937ZM18.1006 61.0752L14.6069 65.9385H12.5488L12.3071 64.166H13.7354L15.6616 61.0752H18.1006ZM15.7788 69L13.6108 65.6016L15.2222 64.5908L18.3496 69H15.7788Z" fill="black"/>
<path d="M22.8194 62.5986V72.0469H20.8785V61.0752H22.6729L22.8194 62.5986ZM27.9098 64.957V65.1108C27.9098 65.687 27.8414 66.2217 27.7047 66.7148C27.5729 67.2031 27.3775 67.6304 27.1187 67.9966C26.86 68.3579 26.5377 68.6411 26.152 68.8462C25.7711 69.0464 25.3316 69.1465 24.8336 69.1465C24.3453 69.1465 23.9205 69.0537 23.5592 68.8682C23.1979 68.6777 22.8927 68.4092 22.6437 68.0625C22.3946 67.7158 22.1944 67.313 22.0431 66.854C21.8966 66.3901 21.7867 65.8848 21.7135 65.3379V64.8472C21.7867 64.2661 21.8966 63.7388 22.0431 63.2651C22.1944 62.7866 22.3946 62.374 22.6437 62.0273C22.8927 61.6758 23.1954 61.4048 23.5519 61.2144C23.9132 61.0239 24.3355 60.9287 24.8189 60.9287C25.3219 60.9287 25.7638 61.0239 26.1446 61.2144C26.5304 61.4048 26.8551 61.6782 27.1187 62.0347C27.3824 62.3911 27.5802 62.8159 27.712 63.3091C27.8438 63.8022 27.9098 64.3516 27.9098 64.957ZM25.9688 65.1108V64.957C25.9688 64.6055 25.9371 64.2808 25.8736 63.9829C25.8102 63.6802 25.7125 63.4165 25.5807 63.1919C25.4488 62.9624 25.2779 62.7842 25.068 62.6572C24.858 62.5303 24.6041 62.4668 24.3062 62.4668C24.0084 62.4668 23.7521 62.5156 23.5372 62.6133C23.3224 62.7109 23.1466 62.8501 23.0099 63.0308C22.8731 63.2114 22.7657 63.4263 22.6876 63.6753C22.6144 63.9194 22.5655 64.1904 22.5411 64.4883V65.7041C22.5851 66.0654 22.6705 66.3901 22.7975 66.6782C22.9244 66.9663 23.11 67.1958 23.3541 67.3667C23.6031 67.5376 23.9254 67.623 24.3209 67.623C24.6187 67.623 24.8727 67.5571 25.0826 67.4253C25.2926 67.2935 25.4635 67.1128 25.5953 66.8833C25.7271 66.6489 25.8224 66.3804 25.881 66.0776C25.9396 65.7749 25.9688 65.4526 25.9688 65.1108Z" fill="black"/>
<path d="M33.2072 68.1211L35.3312 61.0752H37.404L34.2253 70.2012C34.1521 70.3965 34.0568 70.6089 33.9396 70.8384C33.8273 71.0679 33.676 71.2852 33.4855 71.4902C33.2951 71.7002 33.0559 71.8711 32.7678 72.0029C32.4846 72.1348 32.1403 72.2007 31.7351 72.2007C31.5593 72.2007 31.403 72.1885 31.2663 72.1641C31.1296 72.1396 30.9855 72.1079 30.8342 72.0688V70.6187C30.883 70.6235 30.9392 70.626 31.0026 70.626C31.071 70.6309 31.1296 70.6333 31.1784 70.6333C31.4616 70.6333 31.696 70.5991 31.8815 70.5308C32.0671 70.4673 32.216 70.3623 32.3283 70.2158C32.4455 70.0742 32.5432 69.8887 32.6213 69.6592L33.2072 68.1211ZM32.1599 61.0752L33.9543 66.9126L34.2692 68.9561L32.9362 69.1978L30.0725 61.0752H32.1599Z" fill="black"/>
<path d="M42.6941 65.9092L39.4715 61.0752H41.8592L43.6243 64.1294H45.1551L44.9134 65.9092H42.6941ZM43.6609 65.6016L41.742 69H39.3909L42.1375 64.5908L43.6609 65.6016ZM46.3709 61.0752V69H44.4373V61.0752H46.3709ZM51.3587 61.0752L48.1287 65.9092H45.9095L45.6678 64.1294H47.1985L48.9637 61.0752H51.3587ZM49.0809 69L47.1619 65.6016L48.7366 64.5908L51.4759 69H49.0809Z" fill="black"/>
<path d="M56.2606 61.0752V69H54.327V61.0752H56.2606ZM61.4242 61.0752L57.9306 65.9385H55.8725L55.6308 64.166H57.059L58.9853 61.0752H61.4242ZM59.1024 69L56.9345 65.6016L58.5458 64.5908L61.6732 69H59.1024Z" fill="black"/>
<path d="M68.5747 67.3154V63.6606C68.5747 63.3921 68.5283 63.1602 68.4355 62.9648C68.3428 62.7695 68.2012 62.6182 68.0107 62.5107C67.8203 62.4033 67.5786 62.3496 67.2856 62.3496C67.0269 62.3496 66.7998 62.3936 66.6045 62.4814C66.4141 62.5693 66.2676 62.6938 66.165 62.855C66.0625 63.0112 66.0112 63.1919 66.0112 63.397H64.0703C64.0703 63.0698 64.1484 62.7598 64.3047 62.4668C64.4609 62.1689 64.6831 61.9053 64.9712 61.6758C65.2642 61.4414 65.6133 61.2583 66.0186 61.1265C66.4287 60.9946 66.8877 60.9287 67.3955 60.9287C67.9961 60.9287 68.5308 61.0312 68.9995 61.2363C69.4731 61.4365 69.8442 61.7393 70.1128 62.1445C70.3862 62.5498 70.5229 63.0601 70.5229 63.6753V67.1323C70.5229 67.5278 70.5474 67.8672 70.5962 68.1504C70.6499 68.4287 70.728 68.6704 70.8306 68.8755V69H68.8604C68.7676 68.7998 68.6968 68.5459 68.6479 68.2383C68.5991 67.9258 68.5747 67.6182 68.5747 67.3154ZM68.8457 64.1733L68.8604 65.3232H67.6372C67.3345 65.3232 67.0684 65.355 66.8389 65.4185C66.6094 65.4771 66.4214 65.5649 66.2749 65.6821C66.1284 65.7944 66.0186 65.9312 65.9453 66.0923C65.8721 66.2485 65.8354 66.4268 65.8354 66.627C65.8354 66.8223 65.8794 66.998 65.9673 67.1543C66.0601 67.3105 66.1919 67.4351 66.3628 67.5278C66.5386 67.6157 66.7437 67.6597 66.978 67.6597C67.3198 67.6597 67.6177 67.5913 67.8716 67.4546C68.1255 67.313 68.3232 67.1421 68.4648 66.9419C68.6064 66.7417 68.6821 66.5513 68.6919 66.3706L69.2485 67.2056C69.1802 67.4058 69.0776 67.6182 68.9409 67.8428C68.8042 68.0674 68.6284 68.2773 68.4136 68.4727C68.1987 68.668 67.9399 68.8291 67.6372 68.9561C67.3345 69.083 66.9829 69.1465 66.5825 69.1465C66.0698 69.1465 65.6108 69.0439 65.2056 68.8389C64.8003 68.6338 64.4805 68.353 64.2461 67.9966C64.0117 67.6401 63.8945 67.2349 63.8945 66.7808C63.8945 66.3608 63.9727 65.9897 64.1289 65.6675C64.2852 65.3452 64.5171 65.0742 64.8247 64.8545C65.1323 64.6299 65.5132 64.4614 65.9673 64.3491C66.4263 64.2319 66.9512 64.1733 67.542 64.1733H68.8457Z" fill="black"/>
<path d="M75.4322 61.0752L76.8458 63.5947L78.2813 61.0752H80.3834L78.0543 64.957L80.4786 69H78.3766L76.8605 66.356L75.337 69H73.235L75.652 64.957L73.3375 61.0752H75.4322Z" fill="black"/>
<path d="M96.9409 55.5986V65.0469H95V54.0752H96.7944L96.9409 55.5986ZM102.031 57.957V58.1108C102.031 58.687 101.963 59.2217 101.826 59.7148C101.694 60.2031 101.499 60.6304 101.24 60.9966C100.981 61.3579 100.659 61.6411 100.273 61.8462C99.8926 62.0464 99.4531 62.1465 98.9551 62.1465C98.4668 62.1465 98.042 62.0537 97.6807 61.8682C97.3193 61.6777 97.0142 61.4092 96.7651 61.0625C96.5161 60.7158 96.3159 60.313 96.1646 59.854C96.0181 59.3901 95.9082 58.8848 95.835 58.3379V57.8472C95.9082 57.2661 96.0181 56.7388 96.1646 56.2651C96.3159 55.7866 96.5161 55.374 96.7651 55.0273C97.0142 54.6758 97.3169 54.4048 97.6733 54.2144C98.0347 54.0239 98.457 53.9287 98.9404 53.9287C99.4434 53.9287 99.8853 54.0239 100.266 54.2144C100.652 54.4048 100.977 54.6782 101.24 55.0347C101.504 55.3911 101.702 55.8159 101.833 56.3091C101.965 56.8022 102.031 57.3516 102.031 57.957ZM100.09 58.1108V57.957C100.09 57.6055 100.059 57.2808 99.9951 56.9829C99.9316 56.6802 99.834 56.4165 99.7021 56.1919C99.5703 55.9624 99.3994 55.7842 99.1895 55.6572C98.9795 55.5303 98.7256 55.4668 98.4277 55.4668C98.1299 55.4668 97.8735 55.5156 97.6587 55.6133C97.4438 55.7109 97.2681 55.8501 97.1313 56.0308C96.9946 56.2114 96.8872 56.4263 96.8091 56.6753C96.7358 56.9194 96.687 57.1904 96.6626 57.4883V58.7041C96.7065 59.0654 96.792 59.3901 96.9189 59.6782C97.0459 59.9663 97.2314 60.1958 97.4756 60.3667C97.7246 60.5376 98.0469 60.623 98.4424 60.623C98.7402 60.623 98.9941 60.5571 99.2041 60.4253C99.4141 60.2935 99.585 60.1128 99.7168 59.8833C99.8486 59.6489 99.9438 59.3804 100.002 59.0776C100.061 58.7749 100.09 58.4526 100.09 58.1108Z" fill="white"/>
<path d="M114.766 58.1108V58.2646C114.766 58.8311 114.703 59.3511 114.576 59.8247C114.454 60.2983 114.268 60.7085 114.019 61.0552C113.775 61.4019 113.472 61.6704 113.111 61.8608C112.75 62.0513 112.332 62.1465 111.859 62.1465C111.434 62.1465 111.063 62.0708 110.745 61.9194C110.433 61.7632 110.169 61.5459 109.954 61.2676C109.744 60.9844 109.573 60.6548 109.442 60.2788C109.315 59.8979 109.219 59.4854 109.156 59.041V57.2539C109.219 56.7754 109.315 56.3359 109.442 55.9355C109.569 55.5303 109.739 55.1787 109.954 54.8809C110.169 54.5781 110.43 54.3438 110.738 54.1777C111.05 54.0117 111.419 53.9287 111.844 53.9287C112.23 53.9287 112.576 53.9946 112.884 54.1265C113.192 54.2583 113.463 54.4487 113.697 54.6978C113.931 54.9419 114.127 55.2373 114.283 55.584C114.444 55.9258 114.564 56.3115 114.642 56.7412C114.725 57.166 114.766 57.6226 114.766 58.1108ZM112.825 58.2646V58.1108C112.825 57.8228 112.808 57.5469 112.774 57.2832C112.74 57.0146 112.686 56.7705 112.613 56.5508C112.54 56.3311 112.445 56.1382 112.327 55.9722C112.21 55.8062 112.069 55.6792 111.903 55.5913C111.737 55.4985 111.546 55.4521 111.331 55.4521C110.999 55.4521 110.726 55.5132 110.511 55.6353C110.301 55.7573 110.142 55.9258 110.035 56.1406C109.932 56.3555 109.871 56.6069 109.852 56.895V59.4072C109.876 59.6514 109.942 59.8638 110.05 60.0444C110.157 60.2251 110.316 60.3667 110.526 60.4692C110.74 60.5718 111.014 60.623 111.346 60.623C111.614 60.623 111.842 60.5645 112.027 60.4473C112.217 60.3252 112.371 60.1592 112.488 59.9492C112.606 59.7344 112.691 59.4854 112.745 59.2021C112.799 58.9141 112.825 58.6016 112.825 58.2646ZM104.923 58.2646V58.1108C104.923 57.6226 104.962 57.166 105.04 56.7412C105.123 56.3115 105.245 55.9258 105.406 55.584C105.567 55.2373 105.765 54.9419 105.999 54.6978C106.234 54.4487 106.505 54.2583 106.812 54.1265C107.12 53.9946 107.464 53.9287 107.845 53.9287C108.27 53.9287 108.636 54.0117 108.944 54.1777C109.251 54.3438 109.51 54.5781 109.72 54.8809C109.93 55.1787 110.098 55.5303 110.225 55.9355C110.352 56.3359 110.45 56.7754 110.518 57.2539V58.9678C110.455 59.4219 110.357 59.8442 110.225 60.2349C110.098 60.6206 109.927 60.9575 109.713 61.2456C109.503 61.5337 109.244 61.7559 108.936 61.9121C108.629 62.0684 108.26 62.1465 107.83 62.1465C107.362 62.1465 106.946 62.0513 106.585 61.8608C106.224 61.6704 105.919 61.4019 105.67 61.0552C105.425 60.7085 105.24 60.2983 105.113 59.8247C104.986 59.3511 104.923 58.8311 104.923 58.2646ZM106.863 58.1108V58.2646C106.863 58.6016 106.888 58.9141 106.937 59.2021C106.99 59.4854 107.073 59.7344 107.186 59.9492C107.303 60.1592 107.454 60.3252 107.64 60.4473C107.825 60.5645 108.052 60.623 108.321 60.623C108.658 60.623 108.931 60.5693 109.141 60.4619C109.351 60.3496 109.51 60.1982 109.617 60.0078C109.73 59.8125 109.796 59.5854 109.815 59.3267V56.895C109.8 56.6069 109.739 56.3555 109.632 56.1406C109.525 55.9258 109.366 55.7573 109.156 55.6353C108.946 55.5132 108.673 55.4521 108.336 55.4521C108.067 55.4521 107.838 55.5229 107.647 55.6646C107.462 55.8013 107.31 55.9917 107.193 56.2358C107.081 56.48 106.998 56.7632 106.944 57.0854C106.89 57.4077 106.863 57.7495 106.863 58.1108ZM108.848 65.0469V50.75H110.797V65.0469H108.848Z" fill="white"/>
<rect x="11" y="75" width="69" height="8" rx="1" fill="white"/>
<path d="M43 22C42.6 26.4 46.5 30.5 48.5 32C46.9032 30 46.2677 24.3 56.5 17.5C66.7323 10.7 58.7635 6.33333 53.5 5C57.5 11 54.1667 13.1667 52 13.5C49.1667 14.5 43.4 17.6 43 22Z" fill="white"/>
</svg>
