<svg width="131" height="45" viewBox="0 0 131 45" fill="none" xmlns="http://www.w3.org/2000/svg">
<rect x="39.5" y="0.5" width="91" height="44" rx="5.5" fill="#FF0000" stroke="#FF0000"/>
<rect x="0.5" y="0.5" width="91" height="44" rx="5.5" fill="white" stroke="#FF0000"/>
<path d="M19.5801 8.33594V19H17.5659V9.92529H13.0542V19H11.04V8.33594H19.5801Z" fill="black"/>
<path d="M25.0659 19.1465C24.4653 19.1465 23.9258 19.0488 23.4473 18.8535C22.9688 18.6582 22.561 18.3872 22.2241 18.0405C21.8921 17.689 21.6357 17.2812 21.4551 16.8174C21.2793 16.3486 21.1914 15.8457 21.1914 15.3086V15.0156C21.1914 14.4053 21.2793 13.8511 21.4551 13.353C21.6309 12.8501 21.8799 12.418 22.2021 12.0566C22.5244 11.6953 22.9102 11.417 23.3594 11.2217C23.8086 11.0264 24.3042 10.9287 24.8462 10.9287C25.4077 10.9287 25.9033 11.0239 26.333 11.2144C26.7627 11.3999 27.1216 11.6636 27.4097 12.0054C27.6978 12.3472 27.915 12.7573 28.0615 13.2358C28.208 13.7095 28.2812 14.2344 28.2812 14.8105V15.6235H22.0703V14.2905H26.377V14.144C26.3672 13.8364 26.3086 13.5557 26.2012 13.3018C26.0938 13.043 25.9277 12.8379 25.7031 12.6865C25.4785 12.5303 25.188 12.4521 24.8315 12.4521C24.5435 12.4521 24.292 12.5156 24.0771 12.6426C23.8672 12.7646 23.6914 12.9404 23.5498 13.1699C23.4131 13.3945 23.3105 13.6631 23.2422 13.9756C23.1738 14.2881 23.1396 14.6348 23.1396 15.0156V15.3086C23.1396 15.6406 23.1836 15.9482 23.2715 16.2314C23.3643 16.5146 23.4985 16.7612 23.6743 16.9712C23.855 17.1763 24.0698 17.3374 24.3188 17.4546C24.5728 17.5669 24.8608 17.623 25.1831 17.623C25.5884 17.623 25.9546 17.5449 26.2817 17.3887C26.6138 17.2275 26.9019 16.9907 27.146 16.6782L28.1201 17.689C27.9541 17.9331 27.7295 18.1675 27.4463 18.3921C27.168 18.6167 26.8311 18.7998 26.4355 18.9414C26.04 19.0781 25.5835 19.1465 25.0659 19.1465Z" fill="black"/>
<path d="M36.0962 11.0752V19H34.1553V11.0752H36.0962ZM35.2173 14.5249V16.0483C35.0317 16.1362 34.8071 16.2192 34.5435 16.2974C34.2847 16.3706 34.0112 16.4292 33.7231 16.4731C33.4399 16.5171 33.1641 16.5391 32.8955 16.5391C32.168 16.5391 31.5405 16.4316 31.0132 16.2168C30.4907 16.002 30.0879 15.6724 29.8047 15.228C29.5215 14.7788 29.3799 14.2051 29.3799 13.5068V11.0679H31.3135V13.5068C31.3135 13.8828 31.3696 14.1807 31.4819 14.4004C31.5942 14.6201 31.7676 14.7764 32.002 14.8691C32.2363 14.9619 32.5342 15.0083 32.8955 15.0083C33.1738 15.0083 33.4399 14.9888 33.6938 14.9497C33.9478 14.9058 34.1992 14.8496 34.4482 14.7812C34.7021 14.708 34.9585 14.6226 35.2173 14.5249Z" fill="black"/>
<path d="M42.2192 17.3154V13.6606C42.2192 13.3921 42.1729 13.1602 42.0801 12.9648C41.9873 12.7695 41.8457 12.6182 41.6553 12.5107C41.4648 12.4033 41.2231 12.3496 40.9302 12.3496C40.6714 12.3496 40.4443 12.3936 40.249 12.4814C40.0586 12.5693 39.9121 12.6938 39.8096 12.855C39.707 13.0112 39.6558 13.1919 39.6558 13.397H37.7148C37.7148 13.0698 37.793 12.7598 37.9492 12.4668C38.1055 12.1689 38.3276 11.9053 38.6157 11.6758C38.9087 11.4414 39.2578 11.2583 39.6631 11.1265C40.0732 10.9946 40.5322 10.9287 41.04 10.9287C41.6406 10.9287 42.1753 11.0312 42.644 11.2363C43.1177 11.4365 43.4888 11.7393 43.7573 12.1445C44.0308 12.5498 44.1675 13.0601 44.1675 13.6753V17.1323C44.1675 17.5278 44.1919 17.8672 44.2407 18.1504C44.2944 18.4287 44.3726 18.6704 44.4751 18.8755V19H42.5049C42.4121 18.7998 42.3413 18.5459 42.2925 18.2383C42.2437 17.9258 42.2192 17.6182 42.2192 17.3154ZM42.4902 14.1733L42.5049 15.3232H41.2817C40.979 15.3232 40.7129 15.355 40.4834 15.4185C40.2539 15.4771 40.0659 15.5649 39.9194 15.6821C39.7729 15.7944 39.6631 15.9312 39.5898 16.0923C39.5166 16.2485 39.48 16.4268 39.48 16.627C39.48 16.8223 39.5239 16.998 39.6118 17.1543C39.7046 17.3105 39.8364 17.4351 40.0073 17.5278C40.1831 17.6157 40.3882 17.6597 40.6226 17.6597C40.9644 17.6597 41.2622 17.5913 41.5161 17.4546C41.77 17.313 41.9678 17.1421 42.1094 16.9419C42.251 16.7417 42.3267 16.5513 42.3364 16.3706L42.8931 17.2056C42.8247 17.4058 42.7222 17.6182 42.5854 17.8428C42.4487 18.0674 42.2729 18.2773 42.0581 18.4727C41.8433 18.668 41.5845 18.8291 41.2817 18.9561C40.979 19.083 40.6274 19.1465 40.2271 19.1465C39.7144 19.1465 39.2554 19.0439 38.8501 18.8389C38.4448 18.6338 38.125 18.353 37.8906 17.9966C37.6562 17.6401 37.5391 17.2349 37.5391 16.7808C37.5391 16.3608 37.6172 15.9897 37.7734 15.6675C37.9297 15.3452 38.1616 15.0742 38.4692 14.8545C38.7769 14.6299 39.1577 14.4614 39.6118 14.3491C40.0708 14.2319 40.5957 14.1733 41.1865 14.1733H42.4902Z" fill="black"/>
<path d="M49.6387 11.0752V19H47.6978V11.0752H49.6387ZM52.2168 11.0752V12.584H45.1636V11.0752H52.2168Z" fill="black"/>
<path d="M54.729 13.5142H57.0435C57.7466 13.5142 58.3447 13.6313 58.8379 13.8657C59.3359 14.0952 59.7144 14.4175 59.9731 14.8325C60.2368 15.2427 60.3687 15.7188 60.3687 16.2607C60.3687 16.6514 60.293 17.0151 60.1416 17.3521C59.9951 17.6841 59.7803 17.9746 59.4971 18.2236C59.2139 18.4678 58.8647 18.6582 58.4497 18.7949C58.0396 18.9316 57.5708 19 57.0435 19H53.4839V11.0752H55.4248V17.4839H57.0435C57.3804 17.4839 57.6489 17.4277 57.8491 17.3154C58.0542 17.1982 58.2007 17.0493 58.2886 16.8687C58.3813 16.6831 58.4277 16.4854 58.4277 16.2754C58.4277 16.0605 58.3813 15.8604 58.2886 15.6748C58.2007 15.4844 58.0542 15.3306 57.8491 15.2134C57.6489 15.0962 57.3804 15.0376 57.0435 15.0376H54.729V13.5142Z" fill="black"/>
<path d="M70.8203 14.3271V15.8433H66.7554V14.3271H70.8203ZM67.3633 11.0752V19H65.4224V11.0752H67.3633ZM72.1753 11.0752V19H70.2271V11.0752H72.1753Z" fill="black"/>
<path d="M78.2983 17.3154V13.6606C78.2983 13.3921 78.252 13.1602 78.1592 12.9648C78.0664 12.7695 77.9248 12.6182 77.7344 12.5107C77.5439 12.4033 77.3022 12.3496 77.0093 12.3496C76.7505 12.3496 76.5234 12.3936 76.3281 12.4814C76.1377 12.5693 75.9912 12.6938 75.8887 12.855C75.7861 13.0112 75.7349 13.1919 75.7349 13.397H73.7939C73.7939 13.0698 73.8721 12.7598 74.0283 12.4668C74.1846 12.1689 74.4067 11.9053 74.6948 11.6758C74.9878 11.4414 75.3369 11.2583 75.7422 11.1265C76.1523 10.9946 76.6113 10.9287 77.1191 10.9287C77.7197 10.9287 78.2544 11.0312 78.7231 11.2363C79.1968 11.4365 79.5679 11.7393 79.8364 12.1445C80.1099 12.5498 80.2466 13.0601 80.2466 13.6753V17.1323C80.2466 17.5278 80.271 17.8672 80.3198 18.1504C80.3735 18.4287 80.4517 18.6704 80.5542 18.8755V19H78.584C78.4912 18.7998 78.4204 18.5459 78.3716 18.2383C78.3228 17.9258 78.2983 17.6182 78.2983 17.3154ZM78.5693 14.1733L78.584 15.3232H77.3608C77.0581 15.3232 76.792 15.355 76.5625 15.4185C76.333 15.4771 76.145 15.5649 75.9985 15.6821C75.8521 15.7944 75.7422 15.9312 75.6689 16.0923C75.5957 16.2485 75.5591 16.4268 75.5591 16.627C75.5591 16.8223 75.603 16.998 75.6909 17.1543C75.7837 17.3105 75.9155 17.4351 76.0864 17.5278C76.2622 17.6157 76.4673 17.6597 76.7017 17.6597C77.0435 17.6597 77.3413 17.5913 77.5952 17.4546C77.8491 17.313 78.0469 17.1421 78.1885 16.9419C78.3301 16.7417 78.4058 16.5513 78.4155 16.3706L78.9722 17.2056C78.9038 17.4058 78.8013 17.6182 78.6646 17.8428C78.5278 18.0674 78.3521 18.2773 78.1372 18.4727C77.9224 18.668 77.6636 18.8291 77.3608 18.9561C77.0581 19.083 76.7065 19.1465 76.3062 19.1465C75.7935 19.1465 75.3345 19.0439 74.9292 18.8389C74.5239 18.6338 74.2041 18.353 73.9697 17.9966C73.7354 17.6401 73.6182 17.2349 73.6182 16.7808C73.6182 16.3608 73.6963 15.9897 73.8525 15.6675C74.0088 15.3452 74.2407 15.0742 74.5483 14.8545C74.856 14.6299 75.2368 14.4614 75.6909 14.3491C76.1499 14.2319 76.6748 14.1733 77.2656 14.1733H78.5693Z" fill="black"/>
<path d="M12.937 26.0752V34H11.0034V26.0752H12.937ZM18.1006 26.0752L14.6069 30.9385H12.5488L12.3071 29.166H13.7354L15.6616 26.0752H18.1006ZM15.7788 34L13.6108 30.6016L15.2222 29.5908L18.3496 34H15.7788Z" fill="black"/>
<path d="M22.8194 27.5986V37.0469H20.8785V26.0752H22.6729L22.8194 27.5986ZM27.9098 29.957V30.1108C27.9098 30.687 27.8414 31.2217 27.7047 31.7148C27.5729 32.2031 27.3775 32.6304 27.1187 32.9966C26.86 33.3579 26.5377 33.6411 26.152 33.8462C25.7711 34.0464 25.3316 34.1465 24.8336 34.1465C24.3453 34.1465 23.9205 34.0537 23.5592 33.8682C23.1979 33.6777 22.8927 33.4092 22.6437 33.0625C22.3946 32.7158 22.1944 32.313 22.0431 31.854C21.8966 31.3901 21.7867 30.8848 21.7135 30.3379V29.8472C21.7867 29.2661 21.8966 28.7388 22.0431 28.2651C22.1944 27.7866 22.3946 27.374 22.6437 27.0273C22.8927 26.6758 23.1954 26.4048 23.5519 26.2144C23.9132 26.0239 24.3355 25.9287 24.8189 25.9287C25.3219 25.9287 25.7638 26.0239 26.1446 26.2144C26.5304 26.4048 26.8551 26.6782 27.1187 27.0347C27.3824 27.3911 27.5802 27.8159 27.712 28.3091C27.8438 28.8022 27.9098 29.3516 27.9098 29.957ZM25.9688 30.1108V29.957C25.9688 29.6055 25.9371 29.2808 25.8736 28.9829C25.8102 28.6802 25.7125 28.4165 25.5807 28.1919C25.4488 27.9624 25.2779 27.7842 25.068 27.6572C24.858 27.5303 24.6041 27.4668 24.3062 27.4668C24.0084 27.4668 23.7521 27.5156 23.5372 27.6133C23.3224 27.7109 23.1466 27.8501 23.0099 28.0308C22.8731 28.2114 22.7657 28.4263 22.6876 28.6753C22.6144 28.9194 22.5655 29.1904 22.5411 29.4883V30.7041C22.5851 31.0654 22.6705 31.3901 22.7975 31.6782C22.9244 31.9663 23.11 32.1958 23.3541 32.3667C23.6031 32.5376 23.9254 32.623 24.3209 32.623C24.6187 32.623 24.8727 32.5571 25.0826 32.4253C25.2926 32.2935 25.4635 32.1128 25.5953 31.8833C25.7271 31.6489 25.8224 31.3804 25.881 31.0776C25.9396 30.7749 25.9688 30.4526 25.9688 30.1108Z" fill="black"/>
<path d="M33.2072 33.1211L35.3312 26.0752H37.404L34.2253 35.2012C34.1521 35.3965 34.0568 35.6089 33.9396 35.8384C33.8273 36.0679 33.676 36.2852 33.4855 36.4902C33.2951 36.7002 33.0559 36.8711 32.7678 37.0029C32.4846 37.1348 32.1403 37.2007 31.7351 37.2007C31.5593 37.2007 31.403 37.1885 31.2663 37.1641C31.1296 37.1396 30.9855 37.1079 30.8342 37.0688V35.6187C30.883 35.6235 30.9392 35.626 31.0026 35.626C31.071 35.6309 31.1296 35.6333 31.1784 35.6333C31.4616 35.6333 31.696 35.5991 31.8815 35.5308C32.0671 35.4673 32.216 35.3623 32.3283 35.2158C32.4455 35.0742 32.5432 34.8887 32.6213 34.6592L33.2072 33.1211ZM32.1599 26.0752L33.9543 31.9126L34.2692 33.9561L32.9362 34.1978L30.0725 26.0752H32.1599Z" fill="black"/>
<path d="M42.6941 30.9092L39.4715 26.0752H41.8592L43.6243 29.1294H45.1551L44.9134 30.9092H42.6941ZM43.6609 30.6016L41.742 34H39.3909L42.1375 29.5908L43.6609 30.6016ZM46.3709 26.0752V34H44.4373V26.0752H46.3709ZM51.3587 26.0752L48.1287 30.9092H45.9095L45.6678 29.1294H47.1985L48.9637 26.0752H51.3587ZM49.0809 34L47.1619 30.6016L48.7366 29.5908L51.4759 34H49.0809Z" fill="black"/>
<path d="M56.2606 26.0752V34H54.327V26.0752H56.2606ZM61.4242 26.0752L57.9306 30.9385H55.8725L55.6308 29.166H57.059L58.9853 26.0752H61.4242ZM59.1024 34L56.9345 30.6016L58.5458 29.5908L61.6732 34H59.1024Z" fill="black"/>
<path d="M68.5747 32.3154V28.6606C68.5747 28.3921 68.5283 28.1602 68.4355 27.9648C68.3428 27.7695 68.2012 27.6182 68.0107 27.5107C67.8203 27.4033 67.5786 27.3496 67.2856 27.3496C67.0269 27.3496 66.7998 27.3936 66.6045 27.4814C66.4141 27.5693 66.2676 27.6938 66.165 27.855C66.0625 28.0112 66.0112 28.1919 66.0112 28.397H64.0703C64.0703 28.0698 64.1484 27.7598 64.3047 27.4668C64.4609 27.1689 64.6831 26.9053 64.9712 26.6758C65.2642 26.4414 65.6133 26.2583 66.0186 26.1265C66.4287 25.9946 66.8877 25.9287 67.3955 25.9287C67.9961 25.9287 68.5308 26.0312 68.9995 26.2363C69.4731 26.4365 69.8442 26.7393 70.1128 27.1445C70.3862 27.5498 70.5229 28.0601 70.5229 28.6753V32.1323C70.5229 32.5278 70.5474 32.8672 70.5962 33.1504C70.6499 33.4287 70.728 33.6704 70.8306 33.8755V34H68.8604C68.7676 33.7998 68.6968 33.5459 68.6479 33.2383C68.5991 32.9258 68.5747 32.6182 68.5747 32.3154ZM68.8457 29.1733L68.8604 30.3232H67.6372C67.3345 30.3232 67.0684 30.355 66.8389 30.4185C66.6094 30.4771 66.4214 30.5649 66.2749 30.6821C66.1284 30.7944 66.0186 30.9312 65.9453 31.0923C65.8721 31.2485 65.8354 31.4268 65.8354 31.627C65.8354 31.8223 65.8794 31.998 65.9673 32.1543C66.0601 32.3105 66.1919 32.4351 66.3628 32.5278C66.5386 32.6157 66.7437 32.6597 66.978 32.6597C67.3198 32.6597 67.6177 32.5913 67.8716 32.4546C68.1255 32.313 68.3232 32.1421 68.4648 31.9419C68.6064 31.7417 68.6821 31.5513 68.6919 31.3706L69.2485 32.2056C69.1802 32.4058 69.0776 32.6182 68.9409 32.8428C68.8042 33.0674 68.6284 33.2773 68.4136 33.4727C68.1987 33.668 67.9399 33.8291 67.6372 33.9561C67.3345 34.083 66.9829 34.1465 66.5825 34.1465C66.0698 34.1465 65.6108 34.0439 65.2056 33.8389C64.8003 33.6338 64.4805 33.353 64.2461 32.9966C64.0117 32.6401 63.8945 32.2349 63.8945 31.7808C63.8945 31.3608 63.9727 30.9897 64.1289 30.6675C64.2852 30.3452 64.5171 30.0742 64.8247 29.8545C65.1323 29.6299 65.5132 29.4614 65.9673 29.3491C66.4263 29.2319 66.9512 29.1733 67.542 29.1733H68.8457Z" fill="black"/>
<path d="M75.4322 26.0752L76.8458 28.5947L78.2813 26.0752H80.3834L78.0543 29.957L80.4786 34H78.3766L76.8605 31.356L75.337 34H73.235L75.652 29.957L73.3375 26.0752H75.4322Z" fill="black"/>
<path d="M96.9521 26.0552C96.9521 25.7622 97.0522 25.5156 97.2524 25.3154C97.4526 25.1152 97.7236 25.0151 98.0654 25.0151C98.4072 25.0151 98.6782 25.1152 98.8784 25.3154C99.0786 25.5156 99.1787 25.7622 99.1787 26.0552C99.1787 26.3433 99.0786 26.5874 98.8784 26.7876C98.6782 26.9829 98.4072 27.0806 98.0654 27.0806C97.7236 27.0806 97.4526 26.9829 97.2524 26.7876C97.0522 26.5874 96.9521 26.3433 96.9521 26.0552Z" fill="white"/>
<path d="M104.868 20.5986V30.0469H102.927V19.0752H104.721L104.868 20.5986ZM109.958 22.957V23.1108C109.958 23.687 109.89 24.2217 109.753 24.7148C109.621 25.2031 109.426 25.6304 109.167 25.9966C108.908 26.3579 108.586 26.6411 108.2 26.8462C107.82 27.0464 107.38 27.1465 106.882 27.1465C106.394 27.1465 105.969 27.0537 105.608 26.8682C105.246 26.6777 104.941 26.4092 104.692 26.0625C104.443 25.7158 104.243 25.313 104.092 24.854C103.945 24.3901 103.835 23.8848 103.762 23.3379V22.8472C103.835 22.2661 103.945 21.7388 104.092 21.2651C104.243 20.7866 104.443 20.374 104.692 20.0273C104.941 19.6758 105.244 19.4048 105.6 19.2144C105.962 19.0239 106.384 18.9287 106.867 18.9287C107.37 18.9287 107.812 19.0239 108.193 19.2144C108.579 19.4048 108.904 19.6782 109.167 20.0347C109.431 20.3911 109.629 20.8159 109.76 21.3091C109.892 21.8022 109.958 22.3516 109.958 22.957ZM108.017 23.1108V22.957C108.017 22.6055 107.986 22.2808 107.922 21.9829C107.859 21.6802 107.761 21.4165 107.629 21.1919C107.497 20.9624 107.326 20.7842 107.116 20.6572C106.906 20.5303 106.653 20.4668 106.355 20.4668C106.057 20.4668 105.8 20.5156 105.586 20.6133C105.371 20.7109 105.195 20.8501 105.058 21.0308C104.922 21.2114 104.814 21.4263 104.736 21.6753C104.663 21.9194 104.614 22.1904 104.59 22.4883V23.7041C104.633 24.0654 104.719 24.3901 104.846 24.6782C104.973 24.9663 105.158 25.1958 105.403 25.3667C105.652 25.5376 105.974 25.623 106.369 25.623C106.667 25.623 106.921 25.5571 107.131 25.4253C107.341 25.2935 107.512 25.1128 107.644 24.8833C107.776 24.6489 107.871 24.3804 107.929 24.0776C107.988 23.7749 108.017 23.4526 108.017 23.1108Z" fill="white"/>
<path d="M122.693 23.1108V23.2646C122.693 23.8311 122.63 24.3511 122.503 24.8247C122.381 25.2983 122.195 25.7085 121.946 26.0552C121.702 26.4019 121.399 26.6704 121.038 26.8608C120.677 27.0513 120.259 27.1465 119.786 27.1465C119.361 27.1465 118.99 27.0708 118.672 26.9194C118.36 26.7632 118.096 26.5459 117.881 26.2676C117.671 25.9844 117.5 25.6548 117.369 25.2788C117.242 24.8979 117.146 24.4854 117.083 24.041V22.2539C117.146 21.7754 117.242 21.3359 117.369 20.9355C117.496 20.5303 117.666 20.1787 117.881 19.8809C118.096 19.5781 118.357 19.3438 118.665 19.1777C118.977 19.0117 119.346 18.9287 119.771 18.9287C120.157 18.9287 120.503 18.9946 120.811 19.1265C121.119 19.2583 121.39 19.4487 121.624 19.6978C121.858 19.9419 122.054 20.2373 122.21 20.584C122.371 20.9258 122.491 21.3115 122.569 21.7412C122.652 22.166 122.693 22.6226 122.693 23.1108ZM120.752 23.2646V23.1108C120.752 22.8228 120.735 22.5469 120.701 22.2832C120.667 22.0146 120.613 21.7705 120.54 21.5508C120.467 21.3311 120.371 21.1382 120.254 20.9722C120.137 20.8062 119.996 20.6792 119.829 20.5913C119.663 20.4985 119.473 20.4521 119.258 20.4521C118.926 20.4521 118.653 20.5132 118.438 20.6353C118.228 20.7573 118.069 20.9258 117.962 21.1406C117.859 21.3555 117.798 21.6069 117.779 21.895V24.4072C117.803 24.6514 117.869 24.8638 117.976 25.0444C118.084 25.2251 118.243 25.3667 118.453 25.4692C118.667 25.5718 118.941 25.623 119.273 25.623C119.541 25.623 119.768 25.5645 119.954 25.4473C120.144 25.3252 120.298 25.1592 120.415 24.9492C120.533 24.7344 120.618 24.4854 120.672 24.2021C120.725 23.9141 120.752 23.6016 120.752 23.2646ZM112.85 23.2646V23.1108C112.85 22.6226 112.889 22.166 112.967 21.7412C113.05 21.3115 113.172 20.9258 113.333 20.584C113.494 20.2373 113.692 19.9419 113.926 19.6978C114.161 19.4487 114.432 19.2583 114.739 19.1265C115.047 18.9946 115.391 18.9287 115.772 18.9287C116.197 18.9287 116.563 19.0117 116.871 19.1777C117.178 19.3438 117.437 19.5781 117.647 19.8809C117.857 20.1787 118.025 20.5303 118.152 20.9355C118.279 21.3359 118.377 21.7754 118.445 22.2539V23.9678C118.382 24.4219 118.284 24.8442 118.152 25.2349C118.025 25.6206 117.854 25.9575 117.64 26.2456C117.43 26.5337 117.171 26.7559 116.863 26.9121C116.556 27.0684 116.187 27.1465 115.757 27.1465C115.288 27.1465 114.873 27.0513 114.512 26.8608C114.151 26.6704 113.846 26.4019 113.597 26.0552C113.352 25.7085 113.167 25.2983 113.04 24.8247C112.913 24.3511 112.85 23.8311 112.85 23.2646ZM114.79 23.1108V23.2646C114.79 23.6016 114.815 23.9141 114.864 24.2021C114.917 24.4854 115 24.7344 115.113 24.9492C115.23 25.1592 115.381 25.3252 115.567 25.4473C115.752 25.5645 115.979 25.623 116.248 25.623C116.585 25.623 116.858 25.5693 117.068 25.4619C117.278 25.3496 117.437 25.1982 117.544 25.0078C117.657 24.8125 117.723 24.5854 117.742 24.3267V21.895C117.727 21.6069 117.666 21.3555 117.559 21.1406C117.452 20.9258 117.293 20.7573 117.083 20.6353C116.873 20.5132 116.6 20.4521 116.263 20.4521C115.994 20.4521 115.765 20.5229 115.574 20.6646C115.389 20.8013 115.237 20.9917 115.12 21.2358C115.008 21.48 114.925 21.7632 114.871 22.0854C114.817 22.4077 114.79 22.7495 114.79 23.1108ZM116.775 30.0469V15.75H118.724V30.0469H116.775Z" fill="white"/>
</svg>
