<svg width="32" height="32" viewBox="0 0 32 32" fill="none" xmlns="http://www.w3.org/2000/svg">
<mask id="path-1-inside-1_32_13" fill="white">
<path d="M32 20H16.1543L6 31V20H0V1H32V20Z"/>
</mask>
<path d="M32 20V22H34V20H32ZM16.1543 20V18H15.2787L14.6847 18.6434L16.1543 20ZM6 31H4V36.1151L7.46958 32.3566L6 31ZM6 20H8V18H6V20ZM0 20H-2V22H0V20ZM0 1V-1H-2V1H0ZM32 1H34V-1H32V1ZM32 20V18H16.1543V20V22H32V20ZM16.1543 20L14.6847 18.6434L4.53042 29.6434L6 31L7.46958 32.3566L17.6239 21.3566L16.1543 20ZM6 31H8V20H6H4V31H6ZM6 20V18H0V20V22H6V20ZM0 20H2V1H0H-2V20H0ZM0 1V3H32V1V-1H0V1ZM32 1H30V20H32H34V1H32Z" fill="#222222" mask="url(#path-1-inside-1_32_13)"/>
</svg>
