<svg width="32" height="32" viewBox="0 0 32 32" fill="none" xmlns="http://www.w3.org/2000/svg">
<path d="M26.6042 2.29999V10.2121H24.6589L24.6326 9.74042C24.5629 8.51037 24.3426 7.32911 23.9724 6.1955L23.9695 6.18671C23.8057 5.65162 23.5918 5.3009 23.3562 5.0871C23.131 4.88271 22.8569 4.77557 22.5037 4.77557H17.9998V25.7678C17.9998 26.0383 18.0943 26.1967 18.2859 26.3156C18.517 26.4589 18.9277 26.5636 19.5876 26.5637H21.1316V28.5002H10.3396V26.5637H11.8484C12.5215 26.5636 12.9425 26.4578 13.1804 26.3127C13.3781 26.192 13.4714 26.0342 13.4714 25.7678V4.77557H8.96753C8.6018 4.77565 8.31483 4.8864 8.0769 5.09882C7.82885 5.32029 7.60359 5.68143 7.42847 6.2287C7.05883 7.38386 6.86262 8.54776 6.8396 9.72186L6.82983 10.2121H4.86792V2.29999H26.6042Z" fill="#222222" stroke="#222222"/>
</svg>
