<svg width="32" height="32" viewBox="0 0 32 32" fill="none" xmlns="http://www.w3.org/2000/svg">
<mask id="path-1-inside-1_32_18" fill="white">
<path d="M6.5 21C10.0899 21 13 23.2386 13 26C13 28.7614 10.0899 31 6.5 31C2.91015 31 0 28.7614 0 26C0 23.2386 2.91015 21 6.5 21ZM18 1C25.732 1 32 5.25329 32 10.5C32 15.7467 25.732 20 18 20C10.268 20 4 15.7467 4 10.5C4 5.25329 10.268 1 18 1Z"/>
</mask>
<path d="M6.5 21V23C7.89201 23 9.07922 23.4362 9.87677 24.0497C10.6722 24.6616 11 25.3683 11 26H13H15C15 23.8703 13.8728 22.077 12.3156 20.8792C10.7606 19.6831 8.69784 19 6.5 19V21ZM13 26H11C11 26.6317 10.6722 27.3384 9.87677 27.9503C9.07922 28.5638 7.89201 29 6.5 29V31V33C8.69784 33 10.7606 32.3169 12.3156 31.1208C13.8728 29.923 15 28.1297 15 26H13ZM6.5 31V29C5.10799 29 3.92078 28.5638 3.12323 27.9503C2.32784 27.3384 2 26.6317 2 26H0H-2C-2 28.1297 -0.872763 29.923 0.684384 31.1208C2.23937 32.3169 4.30216 33 6.5 33V31ZM0 26H2C2 25.3683 2.32784 24.6616 3.12323 24.0497C3.92078 23.4362 5.10799 23 6.5 23V21V19C4.30216 19 2.23937 19.6831 0.684384 20.8792C-0.872763 22.077 -2 23.8703 -2 26H0ZM18 1V3C21.519 3 24.616 3.97137 26.7765 5.43744C28.9479 6.9109 30 8.73692 30 10.5H32H34C34 7.01638 31.9181 4.09239 29.0225 2.12753C26.116 0.155273 22.213 -1 18 -1V1ZM32 10.5H30C30 12.2631 28.9479 14.0891 26.7765 15.5626C24.616 17.0286 21.519 18 18 18V20V22C22.213 22 26.116 20.8447 29.0225 18.8725C31.9181 16.9076 34 13.9836 34 10.5H32ZM18 20V18C14.481 18 11.384 17.0286 9.22351 15.5626C7.05208 14.0891 6 12.2631 6 10.5H4H2C2 13.9836 4.08192 16.9076 6.9775 18.8725C9.88399 20.8447 13.787 22 18 22V20ZM4 10.5H6C6 8.73692 7.05208 6.9109 9.22351 5.43744C11.384 3.97137 14.481 3 18 3V1V-1C13.787 -1 9.88399 0.155273 6.9775 2.12753C4.08192 4.09239 2 7.01638 2 10.5H4Z" fill="#222222" mask="url(#path-1-inside-1_32_18)"/>
</svg>
