<svg width="128" height="128" viewBox="0 0 128 128" fill="none" xmlns="http://www.w3.org/2000/svg">
<g clip-path="url(#clip0_16_64)">
<path d="M88.7589 83.3137V67.0562C88.7589 30.7849 73.4159 8.8763 66.9986 1.30158C66.3066 0.477793 65.2892 0.00823446 64.2183 -3.40924e-06C63.1433 -0.00412234 62.1259 0.461317 61.4216 1.27687C54.8972 8.83511 39.2452 30.752 39.2452 67.0562V83.3178L36.2425 85.3402C30.4554 89.2449 26.9832 95.7734 26.9832 102.759V122.163C26.9832 123.313 27.6175 124.375 28.6307 124.923C29.6481 125.467 30.8797 125.405 31.8353 124.763L41.5889 118.267C44.328 116.446 47.5408 115.47 50.8318 115.47H58.0028V124.874C58.0028 126.604 59.4033 128.004 61.1291 128.004H66.8709C68.5967 128.004 69.9972 126.604 69.9972 124.874V115.47H77.1641C80.4552 115.47 83.672 116.438 86.4153 118.271L96.1607 124.763C97.1162 125.405 98.3478 125.467 99.3652 124.923C100.378 124.375 101.013 123.313 101.013 122.163V102.759C101.013 95.7817 97.5364 89.2532 91.7534 85.3402L88.7589 83.3137ZM64.0041 57.8422C58.0482 57.8422 53.2125 53.0107 53.2125 47.0547C53.2125 41.0946 58.0482 36.2672 64.0041 36.2672C69.956 36.2672 74.7916 41.0946 74.7916 47.0547C74.7916 53.0107 69.956 57.8422 64.0041 57.8422Z" fill="#D9D9D9"/>
</g>
<defs>
<clipPath id="clip0_16_64">
<rect width="128" height="128" fill="white"/>
</clipPath>
</defs>
</svg>
